<?xml version="1.0" encoding="UTF-8" standalone="no"?><!DOCTYPE svg PUBLIC "-//W3C//DTD SVG 1.1//EN" "http://www.w3.org/Graphics/SVG/1.1/DTD/svg11.dtd"><!-- Generated by graphviz version 2.40.1 (20161225.0304)
 --><!-- Title: G Pages: 1 --><svg xmlns="http://www.w3.org/2000/svg" xmlns:xlink="http://www.w3.org/1999/xlink" width="367pt" height="116pt" viewBox="0.00 0.00 367.44 116.00">
<g id="graph0" class="graph" transform="scale(1 1) rotate(0) translate(4 112)">
<title>G</title>
<polygon fill="#ffffff" stroke="transparent" points="-4,4 -4,-112 363.4365,-112 363.4365,4 -4,4"/>
<!-- Flask==0.5 -->
<g id="node1" class="node">
<title>Flask==0.5</title>
<polygon fill="none" stroke="#000000" points="216.2766,-108 137.0316,-108 137.0316,-72 216.2766,-72 216.2766,-108"/>
<text text-anchor="middle" x="176.6541" y="-85.8" font-family="Times,serif" font-size="14.00" fill="#000000">Flask==0.5</text>
</g>
<!-- Werkzeug==0.6.1 -->
<g id="node2" class="node">
<title>Werkzeug==0.6.1</title>
<polygon fill="none" stroke="#000000" points="117.4627,-36 -.1545,-36 -.1545,0 117.4627,0 117.4627,-36"/>
<text text-anchor="middle" x="58.6541" y="-13.8" font-family="Times,serif" font-size="14.00" fill="#000000">Werkzeug==0.6.1</text>
</g>
<!-- Flask==0.5&#45;&gt;Werkzeug==0.6.1 -->
<g id="edge1" class="edge">
<title>Flask==0.5-&gt;Werkzeug==0.6.1</title>
<path fill="none" stroke="#000000" d="M146.8777,-71.8314C131.7848,-62.6221 113.2784,-51.3301 97.1198,-41.4706"/>
<polygon fill="#000000" stroke="#000000" points="98.7804,-38.3838 88.421,-36.1628 95.1343,-44.3593 98.7804,-38.3838"/>
</g>
<!-- Jinja2==2.4 -->
<g id="node3" class="node">
<title>Jinja2==2.4</title>
<polygon fill="none" stroke="#000000" points="217.8841,-36 135.4241,-36 135.4241,0 217.8841,0 217.8841,-36"/>
<text text-anchor="middle" x="176.6541" y="-13.8" font-family="Times,serif" font-size="14.00" fill="#000000">Jinja2==2.4</text>
</g>
<!-- Flask==0.5&#45;&gt;Jinja2==2.4 -->
<g id="edge2" class="edge">
<title>Flask==0.5-&gt;Jinja2==2.4</title>
<path fill="none" stroke="#000000" d="M176.6541,-71.8314C176.6541,-64.131 176.6541,-54.9743 176.6541,-46.4166"/>
<polygon fill="#000000" stroke="#000000" points="180.1542,-46.4132 176.6541,-36.4133 173.1542,-46.4133 180.1542,-46.4132"/>
</g>
<!-- setuptools==44.1.1 -->
<g id="node4" class="node">
<title>setuptools==44.1.1</title>
<polygon fill="none" stroke="#000000" points="359.2197,-36 236.0885,-36 236.0885,0 359.2197,0 359.2197,-36"/>
<text text-anchor="middle" x="297.6541" y="-13.8" font-family="Times,serif" font-size="14.00" fill="#000000">setuptools==44.1.1</text>
</g>
<!-- Flask==0.5&#45;&gt;setuptools==44.1.1 -->
<g id="edge3" class="edge">
<title>Flask==0.5-&gt;setuptools==44.1.1</title>
<path fill="none" stroke="#000000" d="M207.1875,-71.8314C222.6642,-62.6221 241.641,-51.3301 258.2104,-41.4706"/>
<polygon fill="#000000" stroke="#000000" points="260.3265,-44.2843 267.1305,-36.1628 256.747,-38.2687 260.3265,-44.2843"/>
</g>
</g>
</svg>